<?xml version="1.0" encoding="utf-8"?>
<!-- Generator: Adobe Illustrator 21.0.0, SVG Export Plug-In . SVG Version: 6.00 Build 0)  -->
<svg version="1.1" id="Слой_1" xmlns="http://www.w3.org/2000/svg" xmlns:xlink="http://www.w3.org/1999/xlink" x="0px" y="0px"
	 viewBox="0 0 88 88" style="enable-background:new 0 0 88 88;" xml:space="preserve">
<style type="text/css">
	.st0{fill:#BF4C3C;}
	.st1{fill:#FFFFFF;stroke:#FFFFFF;stroke-miterlimit:10;}
</style>
<path class="st0" d="M43.4,0.8c23.8,0,43.2,19.3,43.2,43.2c0,23.8-19.3,43.2-43.2,43.2C19.6,87.1,0.3,67.8,0.3,44
	C0.3,20.1,19.6,0.8,43.4,0.8L43.4,0.8z M43.4,0.8"/>
<path class="st1" d="M15.1,44c-0.4-9.5,8-18.4,17.5-18.5c4.9-0.4,9.6,1.5,13.3,4.6c-1.5,1.7-3.1,3.3-4.7,4.8
	c-3.2-2-7.1-3.5-10.9-2.1c-6.1,1.7-9.8,9-7.6,14.9c1.9,6.2,9.5,9.7,15.4,7.1c3.1-1.1,5.1-3.9,6-7c-3.5-0.1-7.1,0-10.6-0.1
	c0-2.1,0-4.2,0-6.3c5.9,0,11.8,0,17.7,0c0.4,5.2-0.4,10.7-3.7,14.8c-4.6,5.9-13.1,7.6-19.9,5.3C20.2,59.1,14.9,51.7,15.1,44L15.1,44
	z M15.1,44"/>
<path class="st1" d="M62.7,36H68c0,1.8,0,3.5,0,5.3c1.8,0,3.5,0,5.3,0v5.3c-1.8,0-3.5,0-5.3,0c0,1.8,0,3.5,0,5.3c-1.8,0-3.5,0-5.3,0
	c0-1.8,0-3.5,0-5.3c-1.8,0-3.5,0-5.3,0v-5.3c1.8,0,3.5,0,5.3,0C62.7,39.6,62.7,37.8,62.7,36L62.7,36z M62.7,36"/>
</svg>
