<?xml version="1.0" encoding="utf-8"?>
<!-- Generator: Adobe Illustrator 21.0.0, SVG Export Plug-In . SVG Version: 6.00 Build 0)  -->
<svg version="1.1" id="Слой_1" xmlns="http://www.w3.org/2000/svg" xmlns:xlink="http://www.w3.org/1999/xlink" x="0px" y="0px"
	 viewBox="0 0 88 88" style="enable-background:new 0 0 88 88;" xml:space="preserve">
<style type="text/css">
	.st0{fill:#3762A3;}
	.st1{fill-rule:evenodd;clip-rule:evenodd;fill:#FFFFFF;}
</style>
<path class="st0" d="M44.1,0.8c23.8,0,43.2,19.3,43.2,43.2c0,23.8-19.3,43.2-43.2,43.2C20.3,87.1,0.9,67.8,0.9,44
	C0.9,20.1,20.3,0.8,44.1,0.8L44.1,0.8z M44.1,0.8"/>
<path class="st1" d="M42.4,63.4H46c0,0,1.1-0.1,1.6-0.7c0.5-0.6,0.5-1.6,0.5-1.6s-0.1-4.8,2.2-5.5c2.2-0.7,5,4.7,8.1,6.7
	c2.3,1.6,4,1.2,4,1.2l8-0.1c0,0,4.2-0.3,2.2-3.6c-0.2-0.3-1.2-2.4-6-6.9c-5-4.7-4.4-3.9,1.7-12c3.7-4.9,5.2-7.9,4.7-9.2
	c-0.4-1.2-3.2-0.9-3.2-0.9l-9.1,0.1c0,0-0.7-0.1-1.2,0.2c-0.5,0.3-0.8,1-0.8,1s-1.4,3.8-3.3,7.1c-4,6.8-5.6,7.2-6.3,6.8
	c-1.5-1-1.1-4-1.1-6.1c0-6.6,1-9.4-2-10.1c-1-0.2-1.7-0.4-4.2-0.4c-3.2,0-6,0-7.5,0.8c-1,0.5-1.8,1.6-1.3,1.7c0.6,0.1,2,0.4,2.7,1.3
	c0.9,1.3,0.9,4.1,0.9,4.1s0.5,7.8-1.2,8.8c-1.2,0.7-2.9-0.7-6.5-6.9c-1.8-3.2-3.2-6.7-3.2-6.7s-0.3-0.7-0.7-1
	c-0.6-0.4-1.4-0.6-1.4-0.6l-8.6,0.1c0,0-1.3,0-1.8,0.6c-0.4,0.5,0,1.5,0,1.5s6.7,15.8,14.4,23.7C34.4,63.8,42.4,63.4,42.4,63.4
	L42.4,63.4z M42.4,63.4"/>
</svg>
