<?xml version="1.0" encoding="utf-8"?>
<!-- Generator: Adobe Illustrator 21.0.0, SVG Export Plug-In . SVG Version: 6.00 Build 0)  -->
<svg version="1.1" id="Слой_1" xmlns="http://www.w3.org/2000/svg" xmlns:xlink="http://www.w3.org/1999/xlink" x="0px" y="0px"
	 viewBox="0 0 88 88" style="enable-background:new 0 0 88 88;" xml:space="preserve">
<style type="text/css">
	.st0{fill:#70B7FC;}
	.st1{fill:#FFFFFF;}
</style>
<path class="st0" d="M43.5,0.9c23.8,0,43.2,19.3,43.2,43.2c0,23.8-19.3,43.2-43.2,43.2C19.7,87.3,0.3,68,0.3,44.1
	C0.3,20.3,19.7,0.9,43.5,0.9L43.5,0.9z M43.5,0.9"/>
<path class="st1" d="M68.9,30.1c-0.1-0.1-0.2-0.1-0.3-0.1c-1.4,0.6-3,1.1-4.5,1.4c1.7-1.3,2.9-3,3.5-5c0-0.1,0-0.2-0.1-0.3
	c-0.1-0.1-0.2-0.1-0.3,0c-1.9,1.1-3.9,1.9-6,2.3c-1.9-2-4.5-3.1-7.3-3.1c-5.6,0-10.1,4.5-10.1,10.1c0,0.7,0.1,1.3,0.2,2
	c-7.7-0.5-14.9-4.2-19.8-10.2c-0.1-0.1-0.1-0.1-0.2-0.1c-0.1,0-0.2,0.1-0.2,0.1c-0.9,1.5-1.4,3.3-1.4,5.1c0,3.1,1.4,6,3.8,7.9
	c-1.2-0.1-2.4-0.5-3.5-1.1c-0.1,0-0.2,0-0.2,0c-0.1,0-0.1,0.1-0.1,0.2l0,0.1c0,4.4,2.9,8.3,7.1,9.6c-1.1,0.2-2.2,0.2-3.4-0.1
	c-0.1,0-0.2,0-0.2,0.1c-0.1,0.1-0.1,0.2,0,0.2c1.2,3.9,4.7,6.6,8.7,7c-3.4,2.5-7.3,3.8-11.6,3.8c-0.8,0-1.6,0-2.3-0.1
	c-0.1,0-0.2,0.1-0.3,0.2c0,0.1,0,0.2,0.1,0.3c4.5,2.9,9.8,4.5,15.2,4.5c17.7,0,28.2-14.4,28.2-28.2c0-0.4,0-0.8,0-1.2
	c1.9-1.4,3.5-3.1,4.9-5.1C69,30.3,69,30.2,68.9,30.1L68.9,30.1z M68.9,30.1"/>
</svg>
