<?xml version="1.0" encoding="utf-8"?>
<!-- Generator: Adobe Illustrator 21.0.0, SVG Export Plug-In . SVG Version: 6.00 Build 0)  -->
<svg version="1.1" id="Слой_1" xmlns="http://www.w3.org/2000/svg" xmlns:xlink="http://www.w3.org/1999/xlink" x="0px" y="0px"
	 viewBox="0 0 88 88" style="enable-background:new 0 0 88 88;" xml:space="preserve">
<style type="text/css">
	.st0{fill:#982DA3;}
	.st1{fill:#FFFFFF;stroke:#FFFFFF;stroke-width:0.5;stroke-miterlimit:10;}
</style>
<path class="st0" d="M43.4,0.8c23.8,0,43.2,19.3,43.2,43.2c0,23.8-19.3,43.2-43.2,43.2C19.5,87.1,0.2,67.8,0.2,44
	C0.2,20.1,19.5,0.8,43.4,0.8L43.4,0.8z M43.4,0.8"/>
<path class="st1" d="M53.5,19.5H33.1c-8.3,0-15.1,6.8-15.1,15.1v20.5c0,8.3,6.8,15.1,15.1,15.1h20.5c8.3,0,15.1-6.8,15.1-15.1V34.6
	C68.6,26.3,61.9,19.5,53.5,19.5z M63.5,55.1c0,5.5-4.5,10-10,10H33.1c-5.5,0-10-4.5-10-10V34.6c0-5.5,4.5-10,10-10h20.5
	c5.5,0,10,4.5,10,10L63.5,55.1L63.5,55.1z"/>
<path class="st1" d="M43.3,31.8c-7.2,0-13.1,5.9-13.1,13.1S36.1,58,43.3,58s13.1-5.9,13.1-13.1S50.5,31.8,43.3,31.8z M43.3,52.9
	c-4.4,0-8-3.6-8-8s3.6-8,8-8c4.4,0,8,3.6,8,8C51.3,49.3,47.7,52.9,43.3,52.9z"/>
<circle class="st1" cx="56.4" cy="31.9" r="3.1"/>
</svg>
