<?xml version="1.0" encoding="iso-8859-1"?>
<!-- Generator: Adobe Illustrator 16.0.0, SVG Export Plug-In . SVG Version: 6.00 Build 0)  -->
<!DOCTYPE svg PUBLIC "-//W3C//DTD SVG 1.1//EN" "http://www.w3.org/Graphics/SVG/1.1/DTD/svg11.dtd">
<svg version="1.1" id="Capa_1" xmlns="http://www.w3.org/2000/svg" xmlns:xlink="http://www.w3.org/1999/xlink" x="0px" y="0px"
	 width="612px" height="612px" viewBox="0 0 612 612" style="enable-background:new 0 0 612 612;" xml:space="preserve">
<g>
	<g id="Shape_10_1_">
		<g>
			<path d="M306,0C137.27,0,0,137.27,0,306c0,168.73,137.27,306,306,306c168.73,0,306-137.27,306-306C612,137.27,474.73,0,306,0z
				 M306,595.459C146.4,595.459,16.541,465.6,16.541,306S146.4,16.541,306,16.541S595.459,146.4,595.459,306
				S465.6,595.459,306,595.459z M446.347,165.67L306,306.017L165.653,165.67l-11.694,11.694l140.346,140.347L165.653,446.347
				l11.694,11.694L306,329.405l128.652,128.652l11.694-11.694L317.694,317.711l140.347-140.347L446.347,165.67z"/>
		</g>
	</g>
</g>
<g>
</g>
<g>
</g>
<g>
</g>
<g>
</g>
<g>
</g>
<g>
</g>
<g>
</g>
<g>
</g>
<g>
</g>
<g>
</g>
<g>
</g>
<g>
</g>
<g>
</g>
<g>
</g>
<g>
</g>
</svg>
