<?xml version="1.0" encoding="utf-8"?>
<!-- Generator: Adobe Illustrator 21.0.0, SVG Export Plug-In . SVG Version: 6.00 Build 0)  -->
<svg version="1.1" id="Слой_1" xmlns="http://www.w3.org/2000/svg" xmlns:xlink="http://www.w3.org/1999/xlink" x="0px" y="0px"
	 viewBox="0 0 88 88" style="enable-background:new 0 0 88 88;" xml:space="preserve">
<style type="text/css">
	.st0{fill:#223D7A;}
	.st1{fill:#FFFFFF;}
</style>
<path class="st0" d="M43.6,0.8c23.8,0,43.2,19.3,43.2,43.2c0,23.8-19.3,43.2-43.2,43.2C19.8,87.1,0.5,67.8,0.5,44
	C0.5,20.1,19.8,0.8,43.6,0.8L43.6,0.8z M43.6,0.8"/>
<path class="st1" d="M50,28.7h6.7v-9.9h-7.9v0c-9.6,0.3-11.5,5.7-11.7,11.4h0v5h-6.5v9.7h6.5v26h9.8v-26h8l1.6-9.7h-9.6v-3
	C46.9,30.2,48.2,28.7,50,28.7L50,28.7z M50,28.7"/>
</svg>
