<?xml version="1.0" encoding="utf-8"?>
<!-- Generator: Adobe Illustrator 21.0.0, SVG Export Plug-In . SVG Version: 6.00 Build 0)  -->
<svg version="1.1" id="Слой_1" xmlns="http://www.w3.org/2000/svg" xmlns:xlink="http://www.w3.org/1999/xlink" x="0px" y="0px"
	 viewBox="0 0 88 88" style="enable-background:new 0 0 88 88;" xml:space="preserve">
<style type="text/css">
	.st0{fill:#B42828;}
	.st1{fill:#FFFFFF;}
</style>
<path class="st0" d="M43.8,0.8C67.7,0.8,87,20.1,87,44c0,23.8-19.3,43.2-43.2,43.2C20,87.1,0.7,67.8,0.7,44
	C0.7,20.1,20,0.8,43.8,0.8L43.8,0.8z M43.8,0.8"/>
<g>
	<path class="st1" d="M67.9,45.2c-0.3-1.3-0.9-2.4-1.9-3.3c-1-0.9-2.1-1.4-3.4-1.6c-4.1-0.4-10.2-0.7-18.4-0.7
		c-8.2,0-14.3,0.2-18.3,0.7c-1.3,0.2-2.4,0.7-3.4,1.6c-1,0.9-1.6,2-1.9,3.3c-0.6,2.6-0.9,6.4-0.9,11.6c0,5.2,0.3,9.1,0.9,11.6
		c0.3,1.3,0.9,2.4,1.9,3.3c1,0.9,2.1,1.4,3.4,1.5c4.1,0.5,10.2,0.7,18.4,0.7c8.2,0,14.3-0.2,18.3-0.7c1.3-0.1,2.4-0.6,3.4-1.5
		c1-0.9,1.6-2,1.9-3.3c0.6-2.6,0.9-6.4,0.9-11.6C68.8,51.5,68.5,47.7,67.9,45.2L67.9,45.2z M33.7,48.5h-3.5v18.8h-3.3V48.5h-3.5
		v-3.1h10.3V48.5z M42.7,67.3h-2.9v-1.8c-1.2,1.3-2.3,2-3.4,2c-1,0-1.7-0.4-1.9-1.2c-0.2-0.5-0.3-1.3-0.3-2.4V51h2.9v12
		c0,0.7,0,1.1,0,1.2c0.1,0.5,0.3,0.7,0.7,0.7c0.6,0,1.2-0.5,1.9-1.4V51h2.9V67.3z M53.9,62.4c0,1.6-0.1,2.7-0.3,3.3
		c-0.4,1.2-1.2,1.8-2.3,1.8c-1.1,0-2.1-0.6-3.1-1.8v1.6h-2.9V45.4h2.9v7.2c0.9-1.2,2-1.8,3.1-1.8c1.2,0,2,0.6,2.3,1.9
		c0.2,0.6,0.3,1.7,0.3,3.3V62.4z M65.1,59.7h-5.9v2.9c0,1.5,0.5,2.3,1.5,2.3c0.7,0,1.2-0.4,1.3-1.2c0-0.2,0.1-0.9,0.1-2h3v0.4
		c0,1.1,0,1.7-0.1,1.9c-0.1,0.6-0.3,1.2-0.7,1.8c-0.8,1.2-2,1.8-3.6,1.8c-1.5,0-2.7-0.6-3.6-1.7c-0.6-0.8-1-2.1-1-3.8v-5.7
		c0-1.7,0.3-3,0.9-3.8c0.9-1.1,2-1.7,3.5-1.7c1.5,0,2.6,0.6,3.5,1.7c0.6,0.8,0.9,2.1,0.9,3.8V59.7z M65.1,59.7"/>
	<path class="st1" d="M49.7,53.5c-0.5,0-1,0.2-1.5,0.7v10c0.5,0.5,1,0.7,1.5,0.7c0.9,0,1.3-0.7,1.3-2.2v-7
		C51,54.2,50.5,53.5,49.7,53.5L49.7,53.5z M49.7,53.5"/>
	<path class="st1" d="M60.7,53.5c-1,0-1.5,0.8-1.5,2.2v1.5h3v-1.5C62.1,54.2,61.6,53.5,60.7,53.5L60.7,53.5z M60.7,53.5"/>
	<path class="st1" d="M31.8,27.8v9h3.3v-9l4-13.2h-3.4l-2.2,8.7l-2.3-8.7h-3.5c0.6,1.9,1.3,3.9,2.1,6.2
		C30.8,23.8,31.5,26.1,31.8,27.8L31.8,27.8z M31.8,27.8"/>
	<path class="st1" d="M43.6,37c1.5,0,2.7-0.6,3.5-1.7c0.6-0.8,0.9-2.1,0.9-3.9v-5.8c0-1.8-0.3-3.1-0.9-3.9c-0.8-1.1-2-1.7-3.5-1.7
		c-1.5,0-2.6,0.6-3.5,1.7c-0.6,0.8-0.9,2.1-0.9,3.9v5.8c0,1.8,0.3,3.1,0.9,3.9C40.9,36.4,42.1,37,43.6,37L43.6,37z M42.1,25
		c0-1.5,0.5-2.3,1.4-2.3c0.9,0,1.4,0.8,1.4,2.3v6.9c0,1.5-0.5,2.3-1.4,2.3c-0.9,0-1.4-0.8-1.4-2.3V25z M42.1,25"/>
	<path class="st1" d="M52.7,37c1.1,0,2.2-0.7,3.4-2v1.8h3V20.2h-3v12.6c-0.7,0.9-1.3,1.4-1.9,1.4c-0.4,0-0.6-0.2-0.7-0.7
		c0,0,0-0.4,0-1.2V20.2h-3v13c0,1.1,0.1,1.9,0.3,2.5C51,36.5,51.6,37,52.7,37L52.7,37z M52.7,37"/>
</g>
</svg>
