<?xml version="1.0" encoding="utf-8"?>
<!-- Generator: Adobe Illustrator 21.0.0, SVG Export Plug-In . SVG Version: 6.00 Build 0)  -->
<svg version="1.1" id="Слой_1" xmlns="http://www.w3.org/2000/svg" xmlns:xlink="http://www.w3.org/1999/xlink" x="0px" y="0px"
	 viewBox="0 0 88 88" style="enable-background:new 0 0 88 88;" xml:space="preserve">
<style type="text/css">
	.st0{fill:#63A2DC;}
	.st1{fill:#FFFFFF;}
</style>
<path class="st0" d="M43.5,0.7c23.8,0,43.2,19.3,43.2,43.2C86.7,67.7,67.3,87,43.5,87C19.7,87,0.3,67.7,0.3,43.9
	C0.3,20,19.7,0.7,43.5,0.7L43.5,0.7z M43.5,0.7"/>
<path class="st1" d="M62.1,23.3L14.3,41.9c-1.5,0.6-1.5,2.8,0.1,3.3l12.1,3.6l4.5,14.4c0.5,1.5,2.4,2,3.5,0.8l6.3-6.4l12.3,9
	c1.5,1.1,3.7,0.3,4-1.5l8.2-39C65.8,24.2,63.9,22.6,62.1,23.3L62.1,23.3z M56.1,32L33.9,51.6c-0.2,0.2-0.4,0.5-0.4,0.8L32.6,60
	c0,0.2-0.4,0.3-0.4,0l-3.5-11.3c-0.2-0.5,0-1.1,0.5-1.4L55.4,31C56,30.7,56.6,31.5,56.1,32L56.1,32z M56.1,32"/>
</svg>
